<?xml version="1.0" encoding="UTF-8"?><svg viewBox="0 0 400 400" xmlns="http://www.w3.org/2000/svg"><path d="m357.98 0h-217.41c-7.219 0-12.739 5.5204-12.739 12.739v19.533h-85.773c-7.2196 0-12.74 5.5205-12.74 12.739v189.81c0 5.521 3.3983 10.191 8.918 11.89 1.274 0.425 2.548 0.849 3.822 0.849 3.822 0 7.6425-1.699 10.191-5.095l43.733-58.599h159.66c7.223 0 12.739-5.522 12.739-12.74v-11.041h35.67l43.738 58.176c2.547 3.396 6.369 5.096 10.191 5.096 1.274 0 2.548 0 4.247-0.85 5.094-1.699 8.492-6.794 8.492-11.89v-197.88c0-7.2189-5.521-12.739-12.739-12.739zm-115.07 158.39h-153.29c-3.8213 0-7.6433 1.699-10.191 5.095l-24.629 33.123v-138.85h188.11v100.64zm102.33 14.013l-24.629-32.697c-2.548-3.398-6.37-5.096-10.192-5.096h-42.035v-89.594c0-7.2181-5.52-12.738-12.739-12.738h-102.34v-6.7937h191.93l1e-3 146.92z" fill="#1185E0"/><path d="m297.68 323.14c-27.597 0-49.678-22.082-49.678-49.683 0-27.6 22.076-49.678 49.678-49.678 27.601 0 49.683 22.078 49.683 49.678 0 27.601-22.082 49.683-49.683 49.683zm0-73.883c-13.164 0-24.204 11.04-24.204 24.204s11.041 24.205 24.204 24.205 24.204-11.041 24.204-24.205-11.041-24.204-24.204-24.204z" fill="#4DCFE0"/><path d="m357.13 400h-118.47c-7.219 0-12.74-5.52-12.74-12.739v-2.548c0-39.491 31.42-71.763 70.486-72.188h2.548c38.642 0.85 70.066 32.696 70.49 70.914l0.424 1.699c0.426 3.821-0.424 7.643-2.972 10.191-2.548 2.972-5.944 4.671-9.766 4.671zm-104.46-25.479h90.443c-4.671-20.382-22.505-36.093-44.163-36.517h-2.123c-21.656 0.424-39.911 15.711-44.157 36.517z" fill="#4DCFE0"/><path d="m102.35 323.14c-27.598 0-49.68-22.082-49.68-49.683 0-27.6 22.078-49.678 49.68-49.678 27.601 0 49.682 22.078 49.682 49.678 0 27.601-22.081 49.683-49.682 49.683zm0-73.883c-13.164 0-24.205 11.04-24.205 24.204s11.041 24.205 24.205 24.205c13.163 0 24.204-11.041 24.204-24.205s-11.041-24.204-24.204-24.204z" fill="#1185E0"/><path d="m161.8 400h-118.05c-7.2196 0-12.739-5.52-12.739-12.739v-2.548c0-39.491 31.423-71.763 70.489-72.188h2.543c39.068 0.85 70.49 33.546 70.49 72.188v2.548c0 7.219-5.519 12.739-12.739 12.739h2e-3zm-104.03-25.479h90.443c-4.671-20.382-22.505-36.093-44.163-36.517h-2.122c-21.652 0.424-39.912 15.711-44.158 36.517z" fill="#1185E0"/><path d="m144.81 103.61h-51.806c-7.2174 0-12.734-5.5201-12.734-12.734 0-7.2188 5.5204-12.738 12.735-12.738h51.806c7.219 0 12.739 5.5197 12.739 12.738 0 7.2143-5.52 12.735-12.74 12.735v-1e-3zm62.847 35.67h-114.65c-7.2174 0-12.734-5.52-12.734-12.739 0-7.218 5.5204-12.739 12.735-12.739h114.65c7.218 0 12.738 5.521 12.738 12.739 0 7.219-5.52 12.739-12.739 12.739z" fill="#4DCFE0"/></svg>